# Blender v2.79 (sub 0) OBJ File: 'capsule_v2.blend'
# www.blender.org
mtllib capsule_ble_v03.mtl
o MeshBody2
v -1.450000 0.000000 -0.150000
v -1.500000 0.000000 0.000000
v -1.450000 0.050000 -0.150000
v -1.500000 0.050000 0.000000
v -1.300000 0.000000 -0.200000
v -1.300000 0.050000 -0.200000
v -1.300000 0.000000 -0.250000
v -1.300000 0.050000 -0.250000
v -1.409504 0.000000 -0.578513
v -1.409504 0.050000 -0.578513
v -1.200000 0.000000 -0.578513
v -1.200000 0.050000 -0.578513
v -1.150000 0.000000 -0.550000
v -1.150000 0.050000 -0.550000
v -0.900000 0.000000 -0.670000
v -0.900000 0.050000 -0.670000
v -0.500000 0.000000 -0.670000
v -0.500000 0.050000 -0.670000
v -0.400000 0.000000 -0.730000
v -0.400000 0.050000 -0.730000
v 0.350000 0.000000 -0.730000
v 0.350000 0.050000 -0.730000
v 0.450000 0.000000 -0.660000
v 0.450000 0.050000 -0.660000
v 0.960000 0.000000 -0.660000
v 0.960000 0.050000 -0.660000
v 1.150000 0.000000 -0.540000
v 1.150000 0.050000 -0.540000
v 1.250000 0.000000 -0.330000
v 1.250000 0.050000 -0.330000
v 1.300000 0.000000 -0.300000
v 1.300000 0.050000 -0.300000
v 1.330000 0.000000 -0.250000
v 1.330000 0.050000 -0.250000
v 1.360000 0.000000 -0.130000
v 1.360000 0.050000 -0.130000
v 1.370000 0.000000 0.000000
v 1.370000 0.050000 0.000000
v 1.360000 -0.000000 0.130000
v 1.360000 0.050000 0.130000
v 1.330000 -0.000000 0.250000
v 1.330000 0.050000 0.250000
v 1.300000 -0.000000 0.300000
v 1.300000 0.050000 0.300000
v 1.250000 -0.000000 0.330000
v 1.250000 0.050000 0.330000
v 1.150000 -0.000000 0.540000
v 1.150000 0.050000 0.540000
v 0.960000 -0.000000 0.660000
v 0.960000 0.050000 0.660000
v 0.450000 -0.000000 0.660000
v 0.450000 0.050000 0.660000
v 0.350000 -0.000000 0.730000
v 0.350000 0.050000 0.730000
v -0.400000 -0.000000 0.730000
v -0.400000 0.050000 0.730000
v -0.500000 -0.000000 0.670000
v -0.500000 0.050000 0.670000
v -0.900000 -0.000000 0.670000
v -0.900000 0.050000 0.670000
v -1.150000 -0.000000 0.550000
v -1.150000 0.050000 0.550000
v -1.200000 -0.000000 0.578513
v -1.200000 0.050000 0.578513
v -1.409504 -0.000000 0.578513
v -1.409504 0.050000 0.578513
v -1.300000 -0.000000 0.250000
v -1.300000 0.050000 0.250000
v -1.300000 -0.000000 0.200000
v -1.300000 0.050000 0.200000
v -1.450000 -0.000000 0.150000
v -1.450000 0.050000 0.150000
vt 0.439877 0.958445
vt 0.390176 0.948641
vt 0.369503 0.938948
vt 0.357165 0.922878
vt 0.270286 0.890500
vt 0.220914 0.829425
vt 0.221964 0.665999
vt 0.193141 0.633844
vt 0.194685 0.393512
vt 0.219772 0.361563
vt 0.220595 0.233386
vt 0.270872 0.153466
vt 0.259151 0.137399
vt 0.259582 0.070265
vt 0.395587 0.105877
vt 0.416322 0.105956
vt 0.437365 0.057969
vt 0.499672 0.042186
vt 0.561772 0.058447
vt 0.582198 0.106592
vt 0.602934 0.106672
vt 0.739390 0.072104
vt 0.738959 0.139238
vt 0.727032 0.155215
vt 0.776280 0.235517
vt 0.775457 0.363694
vt 0.800133 0.395834
vt 0.798589 0.636166
vt 0.769355 0.668099
vt 0.768305 0.831524
vt 0.718152 0.892217
vt 0.630861 0.923928
vt 0.618317 0.939902
vt 0.597521 0.949436
vt 0.547697 0.958858
vt 0.493766 0.961856
vt 0.000000 0.000000
vt 0.000000 0.000000
vt 0.000000 0.000000
vt 0.000000 0.000000
vt 0.000000 0.000000
vt 0.000000 0.000000
vt 0.000000 0.000000
vt 0.000000 0.000000
vt 0.000000 0.000000
vt 0.000000 0.000000
vt 0.000000 0.000000
vt 0.000000 0.000000
vt 0.000000 0.000000
vt 0.000000 0.000000
vt 0.000000 0.000000
vt 0.000000 0.000000
vt 0.000000 0.000000
vt 0.000000 0.000000
vt 0.000000 0.000000
vt 0.000000 0.000000
vt 0.000000 0.000000
vt 0.000000 0.000000
vt 0.000000 0.000000
vt 0.000000 0.000000
vt 0.000000 0.000000
vt 0.000000 0.000000
vt 0.000000 0.000000
vt 0.000000 0.000000
vt 0.000000 0.000000
vt 0.000000 0.000000
vt 0.000000 0.000000
vt 0.000000 0.000000
vt 0.000000 0.000000
vt 0.000000 0.000000
vt 0.000000 0.000000
vt 0.000000 0.000000
vt 0.000000 0.000000
vt 0.000000 0.000000
vt 0.000000 0.000000
vt 0.000000 0.000000
vt 0.000000 0.000000
vt 0.000000 0.000000
vt 0.000000 0.000000
vt 0.000000 0.000000
vt 0.000000 0.000000
vt 0.000000 0.000000
vt 0.000000 0.000000
vt 0.000000 0.000000
vt 0.000000 0.000000
vt 0.000000 0.000000
vt 0.000000 0.000000
vt 0.000000 0.000000
vt 0.000000 0.000000
vt 0.000000 0.000000
vt 0.000000 0.000000
vt 0.000000 0.000000
vt 0.000000 0.000000
vt 0.000000 0.000000
vt 0.000000 0.000000
vt 0.000000 0.000000
vt 0.000000 0.000000
vt 0.000000 0.000000
vt 0.000000 0.000000
vt 0.000000 0.000000
vt 0.000000 0.000000
vt 0.000000 0.000000
vt 0.000000 0.000000
vt 0.000000 0.000000
vt 0.000000 0.000000
vt 0.000000 0.000000
vt 0.000000 0.000000
vt 0.000000 0.000000
vn 0.0000 1.0000 0.0000
vn -0.3162 0.0000 0.9487
vn -1.0000 -0.0000 0.0000
vn 0.4954 0.0000 0.8687
vn -0.5145 0.0000 -0.8575
vn 0.0000 0.0000 1.0000
vn 0.9029 0.0000 0.4299
vn 0.0000 0.0000 -1.0000
vn -0.9487 -0.0000 -0.3162
vn 0.4954 0.0000 -0.8687
vn 0.5340 0.0000 0.8455
vn 0.9971 -0.0000 -0.0767
vn 0.8575 0.0000 0.5145
vn 0.9701 0.0000 -0.2425
vn -0.4327 0.0000 0.9015
vn 0.5340 0.0000 -0.8455
vn 0.9029 0.0000 -0.4299
vn 0.5735 0.0000 -0.8192
vn 0.0000 -1.0000 -0.0000
vn 0.5145 0.0000 -0.8575
vn -0.3162 0.0000 -0.9487
vn -0.5145 0.0000 0.8575
vn -0.4327 0.0000 -0.9015
vn -0.9487 0.0000 0.3162
vn 0.9701 0.0000 0.2425
vn 0.8575 -0.0000 -0.5145
vn 0.5145 0.0000 0.8575
vn 0.5735 0.0000 0.8192
vn 0.9971 0.0000 0.0767
usemtl Material.001
s off
f 36/1/1 34/2/1 32/3/1 30/4/1 28/5/1 26/6/1 24/7/1 22/8/1 20/9/1 18/10/1 16/11/1 14/12/1 12/13/1 10/14/1 8/15/1 6/16/1 3/17/1 4/18/1 72/19/1 70/20/1 68/21/1 66/22/1 64/23/1 62/24/1 60/25/1 58/26/1 56/27/1 54/28/1 52/29/1 50/30/1 48/31/1 46/32/1 44/33/1 42/34/1 40/35/1 38/36/1
usemtl Material.001_NONE
f 69/37/2 70/38/2 72/39/2 71/40/2
f 67/41/3 68/42/3 70/38/3 69/37/3
f 61/43/4 62/44/4 64/45/4 63/46/4
f 17/47/5 18/48/5 20/49/5 19/50/5
f 63/46/6 64/45/6 66/51/6 65/52/6
f 53/53/6 54/54/6 56/55/6 55/56/6
f 45/57/7 46/58/7 48/59/7 47/60/7
f 19/50/8 20/49/8 22/61/8 21/62/8
f 2/63/9 4/64/9 3/65/9 1/66/9
f 11/67/10 12/68/10 14/69/10 13/70/10
f 47/60/11 48/59/11 50/71/11 49/72/11
f 35/73/12 36/74/12 38/75/12 37/76/12
f 41/77/13 42/78/13 44/79/13 43/80/13
f 33/81/14 34/82/14 36/74/14 35/73/14
f 59/83/15 60/84/15 62/44/15 61/43/15
f 25/85/16 26/86/16 28/87/16 27/88/16
f 27/88/17 28/87/17 30/89/17 29/90/17
f 21/62/18 22/61/18 24/91/18 23/92/18
f 41/77/19 43/80/19 45/57/19 47/60/19 49/72/19 51/93/19 53/53/19 55/56/19 57/94/19 59/83/19 61/43/19 63/46/19 65/52/19 67/41/19 69/37/19 71/40/19 2/63/19 1/66/19 5/95/19 7/96/19 9/97/19 11/67/19 13/70/19 15/98/19 17/47/19 19/50/19 21/62/19 23/92/19 25/85/19 27/88/19 29/90/19 31/99/19 33/81/19 35/73/19 37/76/19 39/100/19
f 9/97/8 10/101/8 12/68/8 11/67/8
f 29/90/20 30/89/20 32/102/20 31/99/20
f 1/66/21 3/65/21 6/103/21 5/95/21
f 55/56/22 56/55/22 58/104/22 57/94/22
f 23/92/8 24/91/8 26/86/8 25/85/8
f 49/72/6 50/71/6 52/105/6 51/93/6
f 13/70/23 14/69/23 16/106/23 15/98/23
f 57/94/6 58/104/6 60/84/6 59/83/6
f 71/40/24 72/39/24 4/64/24 2/63/24
f 39/100/25 40/107/25 42/78/25 41/77/25
f 31/99/26 32/102/26 34/82/26 33/81/26
f 43/80/27 44/79/27 46/58/27 45/57/27
f 5/95/3 6/103/3 8/108/3 7/96/3
f 65/52/9 66/51/9 68/42/9 67/41/9
f 15/98/8 16/106/8 18/48/8 17/47/8
f 51/93/28 52/105/28 54/54/28 53/53/28
f 7/96/24 8/108/24 10/101/24 9/97/24
f 37/76/29 38/75/29 40/107/29 39/100/29
