# Blender v2.79 (sub 0) OBJ File: ''
# www.blender.org
mtllib bush_04_05.mtl
o MeshBody1
v -0.347933 0.413083 0.030000
v -0.223864 0.017210 0.030000
v -0.046617 -0.070000 0.030000
v -0.264478 0.210200 0.030000
v -0.347933 0.413083 0.079999
v -0.223864 0.017210 0.079999
v -0.046617 -0.070000 0.079999
v -0.264478 0.210200 0.079999
v -0.576617 0.750000 0.030000
v -0.556617 0.659999 0.030000
v -0.426617 0.550000 0.030000
v -0.466615 0.870000 0.030000
v -0.266615 0.979999 0.030000
v -0.026617 1.019999 0.030000
v -0.576617 0.750000 0.079999
v -0.556617 0.659999 0.079999
v -0.426617 0.550000 0.079999
v -0.466615 0.870000 0.079999
v -0.266615 0.979999 0.079999
v -0.026617 1.019999 0.079999
v 0.103384 -0.020001 0.030000
v 0.193384 0.090001 0.030000
v 0.363384 0.179999 0.030000
v 0.543384 0.205317 0.030000
v 0.583384 0.279999 0.030000
v 0.503384 0.460198 0.030000
v 0.103384 -0.020001 0.079999
v 0.193384 0.090001 0.079999
v 0.363384 0.179999 0.079999
v 0.543384 0.205317 0.079999
v 0.583384 0.279999 0.079999
v 0.503384 0.460198 0.079999
v 0.383517 0.629999 0.030000
v 0.383516 0.720997 0.030000
v 0.357103 0.905809 0.030000
v 0.409930 0.809759 0.030000
v 0.383517 0.629999 0.079999
v 0.383516 0.720997 0.079999
v 0.357103 0.905809 0.079999
v 0.409930 0.809759 0.079999
vt 0.057148 0.654698
vt 0.074160 0.602306
vt 0.174954 0.539953
vt 0.237409 0.461017
vt 0.304838 0.343524
vt 0.339593 0.231144
vt 0.475727 0.182888
vt 0.588386 0.214557
vt 0.695723 0.221927
vt 0.824623 0.274647
vt 0.917229 0.353517
vt 0.946008 0.397892
vt 0.881665 0.502155
vt 0.787320 0.599694
vt 0.785446 0.652988
vt 0.803638 0.705394
vt 0.761621 0.760806
vt 0.468443 0.821577
vt 0.287368 0.794333
vt 0.138050 0.726728
vt 0.610850 -0.215166
vt 0.583778 -0.249318
vt 0.605570 -0.269807
vt 0.647478 -0.228523
vt -0.031268 0.115577
vt -0.185111 0.106724
vt -0.239384 0.082238
vt -0.249205 -0.007557
vt -0.213962 -0.142549
vt -0.120120 -0.258790
vt 0.119361 -0.374053
vt 0.192287 -0.371460
vt 0.240695 -0.342776
vt 0.303111 -0.313384
vt 0.461689 -0.284378
vt 0.639653 -0.118780
vt 0.621248 -0.017566
vt 0.569139 0.056014
vt 0.525964 0.131880
vt 0.411752 0.175442
vt 0.273368 0.159378
vt 0.109493 0.134959
vt -0.272775 0.098942
vt -0.294764 -0.008419
vt 0.678151 -0.119546
vt 0.102421 0.165222
vt -0.036511 0.151572
vt -0.250526 -0.153953
vt 0.655977 -0.008173
vt 0.267517 0.188296
vt 0.474038 -0.313059
vt 0.318045 -0.342511
vt 0.260109 -0.366922
vt -0.148799 -0.279856
vt 0.416519 0.203529
vt -0.202708 0.140921
vt 0.205257 -0.397056
vt 0.604684 0.069227
vt 0.554120 0.154753
vt 0.111857 -0.407212
vn -0.0000 -0.0000 1.0000
vn 0.8815 -0.4721 0.0000
vn 0.0000 0.0000 -1.0000
vn -0.7372 0.6757 0.0000
vn 0.1393 -0.9903 -0.0000
vn -0.8670 -0.4983 0.0000
vn -0.4819 0.8762 0.0000
vn 0.4679 -0.8838 -0.0000
vn -0.9248 -0.3804 0.0000
vn 0.9140 0.4058 0.0000
vn 1.0000 0.0000 0.0000
vn -0.1644 0.9864 0.0000
vn -0.9786 -0.2059 -0.0000
vn -0.9762 -0.2169 0.0000
vn 0.9585 -0.2852 0.0000
vn -0.6459 -0.7634 0.0000
vn 0.7740 -0.6332 -0.0000
vn -0.4415 -0.8973 -0.0000
vn 0.2852 0.9585 0.0000
vn 0.3162 -0.9487 -0.0000
vn 0.8762 0.4819 0.0000
vn 0.8170 0.5767 0.0000
usemtl Material.001
s off
f 15/1/1 16/2/1 17/3/1 5/4/1 8/5/1 6/6/1 7/7/1 27/8/1 28/9/1 29/10/1 30/11/1 31/12/1 32/13/1 37/14/1 38/15/1 40/16/1 39/17/1 20/18/1 19/19/1 18/20/1
f 24/21/2 25/22/2 31/23/2 30/24/2
f 11/25/3 10/26/3 9/27/3 12/28/3 13/29/3 14/30/3 35/31/3 36/32/3 34/33/3 33/34/3 26/35/3 25/22/3 24/21/3 23/36/3 22/37/3 21/38/3 3/39/3 2/40/3 4/41/3 1/42/3
f 15/43/4 18/44/4 12/28/4 9/27/4
f 24/21/5 30/24/5 29/45/5 23/36/5
f 1/42/6 5/46/6 17/47/6 11/25/6
f 19/48/7 13/29/7 12/28/7 18/44/7
f 23/36/8 29/45/8 28/49/8 22/37/8
f 8/50/9 5/46/9 1/42/9 4/41/9
f 31/23/10 25/22/10 26/35/10 32/51/10
f 37/52/11 33/34/11 34/33/11 38/53/11
f 19/48/12 20/54/12 14/30/12 13/29/12
f 8/50/13 4/41/13 2/40/13 6/55/13
f 10/26/14 16/56/14 15/43/14 9/27/14
f 36/32/15 40/57/15 38/53/15 34/33/15
f 10/26/16 11/25/16 17/47/16 16/56/16
f 22/37/17 28/49/17 27/58/17 21/38/17
f 3/39/18 7/59/18 6/55/18 2/40/18
f 20/54/19 39/60/19 35/31/19 14/30/19
f 3/39/20 21/38/20 27/58/20 7/59/20
f 40/57/21 36/32/21 35/31/21 39/60/21
f 32/51/22 26/35/22 33/34/22 37/52/22
