# Blender v2.79 (sub 0) OBJ File: ''
# www.blender.org
mtllib bush_01_06.mtl
o MeshBody1
v -0.230000 0.113713 0.005000
v -0.130591 -0.035159 0.005000
v -0.230000 0.113713 0.055000
v -0.130591 -0.035159 0.055000
v -0.300000 0.273713 0.005000
v -0.300000 0.273713 0.055000
v -0.336913 0.384908 0.005000
v -0.336913 0.384908 0.055000
v -0.350000 0.463713 0.005000
v -0.350000 0.463713 0.055000
v -0.410000 0.533713 0.005000
v -0.410000 0.533713 0.055000
v -0.448908 0.612928 0.005000
v -0.448908 0.612928 0.055000
v -0.390000 0.763713 0.005000
v -0.390000 0.763713 0.055000
v -0.350000 0.823713 0.005000
v -0.350000 0.823713 0.055000
v 0.000000 0.903713 0.005000
v 0.000000 0.903713 0.055000
v 0.210000 0.833713 0.005000
v 0.210000 0.833713 0.055000
v 0.350000 0.813713 0.005000
v 0.350000 0.813713 0.055000
v 0.480000 0.713713 0.005000
v 0.480000 0.713713 0.055000
v 0.550000 0.603713 0.005000
v 0.550000 0.603713 0.055000
v 0.520000 0.553713 0.005000
v 0.520000 0.553713 0.055000
v 0.430000 0.533713 0.005000
v 0.430000 0.533713 0.055000
v 0.329124 0.484589 0.005000
v 0.329124 0.484589 0.055000
v 0.400000 0.413713 0.005000
v 0.400000 0.413713 0.055000
v 0.400000 0.313713 0.005000
v 0.400000 0.313713 0.055000
v 0.350000 0.263713 0.005000
v 0.350000 0.263713 0.055000
v 0.100000 0.113713 0.005000
v 0.100000 0.113713 0.055000
v -0.050000 -0.036287 0.005000
v -0.050000 -0.036287 0.055000
vt 0.182740 -0.136988
vt 0.135222 -0.124939
vt 0.109461 -0.186091
vt 0.161347 -0.200395
vt 0.864411 -0.088707
vt 0.904086 -0.074579
vt 0.864273 -0.030559
vt 0.831324 -0.054609
vt 0.220802 -0.425929
vt 0.204792 -0.453537
vt 0.462806 -0.481455
vt 0.460959 -0.453070
vt 0.182786 -0.400625
vt 0.152072 -0.424181
vt 0.632883 0.098956
vt 0.603496 0.065375
vt 0.221569 -0.053386
vt 0.175936 -0.038917
vt 0.845745 -0.400350
vt 0.863009 -0.427107
vt 0.943194 -0.379628
vt 0.908584 -0.370774
vt 0.379786 0.151359
vt 0.357827 0.184019
vt 0.251164 0.079988
vt 0.291700 0.060743
vt 0.734937 -0.422795
vt 0.741223 -0.451620
vt 0.439820 0.150084
vt 0.449019 0.190167
vt 0.908594 -0.346374
vt 0.943193 -0.340556
vt 0.912305 -0.288742
vt 0.874512 -0.299788
vt 0.872612 -0.146597
vt 0.916125 -0.147890
vt 0.115975 -0.321141
vt 0.072854 -0.330016
vt 0.629556 -0.424912
vt 0.633887 -0.456170
vt 0.912334 0.590473
vt 0.937699 0.624200
vt 0.875769 0.697128
vt 0.762020 0.762804
vt 0.640582 0.774873
vt 0.457942 0.819733
vt 0.155923 0.762942
vt 0.122023 0.722432
vt 0.072854 0.621015
vt 0.107496 0.568390
vt 0.160284 0.522126
vt 0.172568 0.469533
vt 0.205870 0.395497
vt 0.268405 0.289122
vt 0.356265 0.190467
vt 0.426045 0.190467
vt 0.554079 0.292212
vt 0.768682 0.394892
vt 0.811359 0.428806
vt 0.810148 0.495699
vt 0.747934 0.542447
vt 0.834665 0.576252
vt 0.125275 -0.267477
vt 0.075092 -0.259637
vt 0.831088 -0.208212
vt 0.886845 -0.213302
vn -0.9865 -0.1638 0.0000
vn 0.7071 -0.7071 0.0000
vn -0.2228 0.9749 0.0000
vn -0.8321 0.5547 0.0000
vn 0.5145 -0.8575 0.0000
vn -0.9491 -0.3151 0.0000
vn 0.8437 0.5369 0.0000
vn -0.8316 -0.5553 -0.0000
vn 0.6097 0.7926 0.0000
vn -0.0140 -0.9999 -0.0000
vn -0.9162 -0.4008 0.0000
vn 0.2169 -0.9762 0.0000
vn 1.0000 0.0000 0.0000
vn -0.9314 0.3639 0.0000
vn 0.1414 0.9899 0.0000
vn 0.0000 -0.0000 1.0000
vn -0.8976 -0.4409 0.0000
vn 0.0000 0.0000 -1.0000
vn 0.8575 -0.5145 0.0000
vn 0.4378 -0.8991 0.0000
vn 0.3162 0.9487 0.0000
vn -0.7593 -0.6508 0.0000
vn 0.7071 0.7071 0.0000
usemtl Material.001
s off
f 7/1/1 8/2/1 10/3/1 9/4/1
f 37/5/2 38/6/2 40/7/2 39/8/2
f 17/9/3 18/10/3 20/11/3 19/12/3
f 15/13/4 16/14/4 18/10/4 17/9/4
f 39/8/5 40/7/5 42/15/5 41/16/5
f 5/17/6 6/18/6 8/2/6 7/1/6
f 25/19/7 26/20/7 28/21/7 27/22/7
f 2/23/8 4/24/8 3/25/8 1/26/8
f 23/27/9 24/28/9 26/20/9 25/19/9
f 43/29/10 44/30/10 4/24/10 2/23/10
f 1/26/11 3/25/11 6/18/11 5/17/11
f 29/31/12 30/32/12 32/33/12 31/34/12
f 35/35/13 36/36/13 38/6/13 37/5/13
f 13/37/14 14/38/14 16/14/14 15/13/14
f 21/39/15 22/40/15 24/28/15 23/27/15
f 30/41/16 28/42/16 26/43/16 24/44/16 22/45/16 20/46/16 18/47/16 16/48/16 14/49/16 12/50/16 10/51/16 8/52/16 6/53/16 3/54/16 4/55/16 44/56/16 42/57/16 40/58/16 38/59/16 36/60/16 34/61/16 32/62/16
f 11/63/17 12/64/17 14/38/17 13/37/17
f 41/16/18 43/29/18 2/23/18 1/26/18 5/17/18 7/1/18 9/4/18 11/63/18 13/37/18 15/13/18 17/9/18 19/12/18 21/39/18 23/27/18 25/19/18 27/22/18 29/31/18 31/34/18 33/65/18 35/35/18 37/5/18 39/8/18
f 27/22/19 28/21/19 30/32/19 29/31/19
f 31/34/20 32/33/20 34/66/20 33/65/20
f 19/12/21 20/11/21 22/40/21 21/39/21
f 9/4/22 10/3/22 12/64/22 11/63/22
f 33/65/23 34/66/23 36/36/23 35/35/23
f 41/16/2 42/15/2 44/30/2 43/29/2
