# Blender v2.79 (sub 0) OBJ File: 'new_box.blend'
# www.blender.org
mtllib new_box.mtl
o MeshBody2
v -0.285000 0.293325 -0.025000
v -0.268349 0.276056 -0.025000
v -0.285000 0.293325 0.025000
v -0.268349 0.276056 0.025000
v -0.285000 0.430000 -0.025000
v -0.285000 0.430000 0.025000
v -0.165000 0.510000 -0.025000
v -0.165000 0.510000 0.025000
v 0.225000 0.510000 -0.025000
v 0.225000 0.510000 0.025000
v 0.275000 0.460000 -0.025000
v 0.275000 0.460000 0.025000
v 0.275000 0.320000 -0.025000
v 0.275000 0.320000 0.025000
v 0.260000 0.305000 -0.025000
v 0.260000 0.305000 0.025000
v 0.275000 0.290000 -0.025000
v 0.275000 0.290000 0.025000
v 0.275000 0.210000 -0.025000
v 0.275000 0.210000 0.025000
v 0.255000 0.190000 -0.025000
v 0.255000 0.190000 0.025000
v 0.275000 0.170000 -0.025000
v 0.275000 0.170000 0.025000
v 0.275000 0.070000 -0.025000
v 0.275000 0.070000 0.025000
v 0.185000 0.000000 -0.025000
v 0.185000 -0.000000 0.025000
v -0.225000 0.000000 -0.025000
v -0.225000 -0.000000 0.025000
v -0.285000 0.060000 -0.025000
v -0.285000 0.060000 0.025000
v -0.285000 0.140000 -0.025000
v -0.285000 0.140000 0.025000
v -0.268349 0.156056 -0.025000
v -0.268349 0.156056 0.025000
v -0.285000 0.170000 -0.025000
v -0.285000 0.170000 0.025000
v -0.285000 0.260000 -0.025000
v -0.285000 0.260000 0.025000
vt 0.239910 0.357007
vt 0.295644 0.313940
vt 0.676489 0.313940
vt 0.760089 0.364184
vt 0.760089 0.435962
vt 0.741511 0.450318
vt 0.760089 0.464673
vt 0.760089 0.522095
vt 0.746156 0.532862
vt 0.760089 0.543629
vt 0.760090 0.644118
vt 0.713645 0.680007
vt 0.351378 0.680007
vt 0.239911 0.622585
vt 0.239911 0.524482
vt 0.255378 0.512087
vt 0.239911 0.500562
vt 0.239911 0.435962
vt 0.255378 0.425954
vt 0.239910 0.414429
vt 0.000000 0.000000
vt 0.000000 0.000000
vt 0.000000 0.000000
vt 0.000000 0.000000
vt 0.000000 0.000000
vt 0.000000 0.000000
vt 0.000000 0.000000
vt 0.000000 0.000000
vt 0.000000 0.000000
vt 0.000000 0.000000
vt 0.000000 0.000000
vt 0.000000 0.000000
vt 0.000000 0.000000
vt 0.000000 0.000000
vt 0.000000 0.000000
vt 0.000000 0.000000
vt 0.000000 0.000000
vt 0.000000 0.000000
vt 0.000000 0.000000
vt 0.000000 0.000000
vt 0.000000 0.000000
vt 0.000000 0.000000
vt 0.000000 0.000000
vt 0.000000 0.000000
vt 0.000000 0.000000
vt 0.000000 0.000000
vt 0.000000 0.000000
vt 0.000000 0.000000
vt 0.000000 0.000000
vt 0.000000 0.000000
vt 0.000000 0.000000
vt 0.000000 0.000000
vt 0.000000 0.000000
vt 0.000000 0.000000
vt 0.000000 0.000000
vt 0.000000 0.000000
vt 0.000000 0.000000
vt 0.000000 0.000000
vt 0.000000 0.000000
vt 0.000000 0.000000
vn 0.0000 -0.0000 1.0000
vn -0.7071 -0.7071 -0.0000
vn -0.6941 0.7199 0.0000
vn -1.0000 0.0000 0.0000
vn 1.0000 0.0000 0.0000
vn -0.7199 -0.6941 0.0000
vn -0.6420 -0.7667 0.0000
vn -0.5547 0.8321 0.0000
vn 0.6139 -0.7894 -0.0000
vn 0.0000 1.0000 0.0000
vn 0.7071 -0.7071 0.0000
vn 0.7071 0.7071 0.0000
vn 0.0000 -1.0000 -0.0000
vn 0.0000 0.0000 -1.0000
usemtl Material.001
s off
f 32/1/1 30/2/1 28/3/1 26/4/1 24/5/1 22/6/1 20/7/1 18/8/1 16/9/1 14/10/1 12/11/1 10/12/1 8/13/1 6/14/1 3/15/1 4/16/1 40/17/1 38/18/1 36/19/1 34/20/1
usemtl Material.001_NONE
f 29/21/2 30/22/2 32/23/2 31/24/2
f 39/25/3 40/26/3 4/27/3 2/28/3
f 37/29/4 38/30/4 40/26/4 39/25/4
f 23/31/5 24/32/5 26/33/5 25/34/5
f 1/35/4 3/36/4 6/37/4 5/38/4
f 2/28/6 4/27/6 3/36/6 1/35/6
f 35/39/7 36/40/7 38/30/7 37/29/7
f 5/38/8 6/37/8 8/41/8 7/42/8
f 11/43/5 12/44/5 14/45/5 13/46/5
f 33/47/3 34/48/3 36/40/3 35/39/3
f 25/34/9 26/33/9 28/49/9 27/50/9
f 7/42/10 8/41/10 10/51/10 9/52/10
f 17/53/5 18/54/5 20/55/5 19/56/5
f 31/24/4 32/23/4 34/48/4 33/47/4
f 13/46/11 14/45/11 16/57/11 15/58/11
f 15/58/12 16/57/12 18/54/12 17/53/12
f 27/50/13 28/49/13 30/22/13 29/21/13
f 19/56/11 20/55/11 22/59/11 21/60/11
f 5/38/14 7/42/14 9/52/14 11/43/14 13/46/14 15/58/14 17/53/14 19/56/14 21/60/14 23/31/14 25/34/14 27/50/14 29/21/14 31/24/14 33/47/14 35/39/14 37/29/14 39/25/14 2/28/14 1/35/14
f 21/60/12 22/59/12 24/32/12 23/31/12
f 9/52/12 10/51/12 12/44/12 11/43/12
