# Blender v2.79 (sub 0) OBJ File: ''
# www.blender.org
mtllib astronaut_L_ble_v04.mtl
o MeshBody5
v -0.580000 0.000000 -0.650000
v -0.550000 0.000000 -0.700000
v -0.580000 0.050000 -0.650000
v -0.550000 0.050000 -0.700000
v -0.520000 0.000000 -0.650000
v -0.520000 0.050000 -0.650000
v -0.535000 0.000000 -0.550952
v -0.535000 0.050000 -0.550952
v -0.520000 0.000000 -0.440000
v -0.520000 0.050000 -0.440000
v -0.500000 0.000000 -0.380000
v -0.500000 0.050000 -0.380000
v -0.500000 0.000000 -0.300000
v -0.500000 0.050000 -0.300000
v -0.487968 0.000000 -0.210998
v -0.487968 0.050000 -0.210998
v -0.450000 0.000000 -0.170000
v -0.450000 0.050000 -0.170000
v -0.220000 0.000000 -0.150000
v -0.220000 0.050000 -0.150000
v -0.145565 0.000000 -0.218932
v -0.145565 0.050000 -0.218932
v -0.130000 0.000000 -0.290000
v -0.130000 0.050000 -0.290000
v -0.290000 0.000000 -0.380000
v -0.290000 0.050000 -0.380000
v -0.310000 0.000000 -0.440000
v -0.310000 0.050000 -0.440000
v -0.263893 0.000000 -0.650515
v -0.263893 0.050000 -0.650515
v -0.263893 0.000000 -0.750000
v -0.263893 0.050000 -0.750000
v -0.320000 0.000000 -1.000000
v -0.320000 0.050000 -1.000000
v -0.204290 0.000000 -0.974657
v -0.204290 0.050000 -0.974657
v -0.130000 0.000000 -1.010000
v -0.130000 0.050000 -1.010000
v -0.104379 0.000000 -1.126979
v -0.104379 0.050000 -1.126979
v -0.180000 0.000000 -1.510000
v -0.180000 0.050000 -1.510000
v -0.320000 0.000000 -1.550000
v -0.320000 0.050000 -1.550000
v -0.290000 0.000000 -1.690000
v -0.290000 0.050000 -1.690000
v -0.290000 0.000000 -1.800000
v -0.290000 0.050000 -1.800000
v -0.350000 0.000000 -1.900000
v -0.350000 0.050000 -1.900000
v -0.510000 0.000000 -1.940000
v -0.510000 0.050000 -1.940000
v -0.690000 0.000000 -1.900000
v -0.690000 0.050000 -1.900000
v -0.740000 0.000000 -1.850000
v -0.740000 0.050000 -1.850000
v -0.740000 0.000000 -1.730000
v -0.740000 0.050000 -1.730000
v -0.715000 0.000000 -1.579221
v -0.715000 0.050000 -1.579221
v -0.800000 0.000000 -1.550000
v -0.800000 0.050000 -1.550000
v -0.850000 0.000000 -1.440000
v -0.850000 0.050000 -1.440000
v -0.910000 0.000000 -1.270000
v -0.910000 0.050000 -1.270000
v -0.950000 0.000000 -1.110000
v -0.950000 0.050000 -1.110000
v -0.810000 0.000000 -0.840000
v -0.810000 0.050000 -0.840000
v -0.820000 0.000000 -0.710000
v -0.820000 0.050000 -0.710000
v -0.870000 0.000000 -0.600000
v -0.870000 0.050000 -0.600000
v -0.880817 0.000000 -0.380000
v -0.880817 0.050000 -0.380000
v -0.922830 0.000000 -0.287571
v -0.922830 0.050000 -0.287571
v -0.922830 0.000000 -0.190000
v -0.922830 0.050000 -0.190000
v -0.850000 0.000000 -0.090000
v -0.850000 0.050000 -0.090000
v -0.790000 0.000000 -0.110000
v -0.790000 0.050000 -0.110000
v -0.730000 0.000000 -0.210000
v -0.730000 0.050000 -0.210000
v -0.717730 0.000000 -0.333785
v -0.717730 0.050000 -0.333785
v -0.610000 0.000000 -0.560000
v -0.610000 0.050000 -0.560000
vt 0.858517 0.031194
vt 0.852043 0.007566
vt 0.983403 0.021276
vt 0.968564 0.041013
vt 1.256011 0.203932
vt 1.230436 0.188703
vt 1.321706 0.081392
vt 1.351467 0.095517
vt 1.012549 0.040032
vt 0.990561 0.054375
vt 1.503263 0.492332
vt 1.475528 0.498480
vt 1.392052 0.370937
vt 1.427374 0.365464
vt 0.963974 0.652696
vt 0.938708 0.665149
vt 0.905996 0.617632
vt 0.932558 0.616678
vt 1.484348 0.049918
vt 1.512640 0.047321
vt 1.507034 0.093335
vt 1.479499 0.088206
vt 1.029584 0.124701
vt 1.059388 0.113479
vt 1.078348 0.141605
vt 1.050208 0.152790
vt 0.997971 0.531244
vt 0.953396 0.525811
vt 0.917919 0.366791
vt 0.955204 0.360222
vt 0.875494 0.150526
vt 0.840283 0.167427
vt 0.761618 0.077324
vt 0.800149 0.078746
vt 1.212808 0.246501
vt 1.191987 0.223613
vt 1.012338 0.087393
vt 1.039400 0.077648
vt 1.463503 0.013418
vt 1.481427 -0.005199
vt 1.486411 0.138020
vt 1.455554 0.130575
vt 0.902287 0.313987
vt 0.936023 0.307789
vt 0.667293 0.852336
vt 0.668181 0.909605
vt 0.628564 0.962042
vt 0.521087 0.983865
vt 0.399488 0.964163
vt 0.365397 0.938444
vt 0.364428 0.875969
vt 0.380054 0.797313
vt 0.322549 0.782631
vt 0.287973 0.725674
vt 0.246176 0.637542
vt 0.217933 0.554491
vt 0.310078 0.413048
vt 0.302291 0.345429
vt 0.267715 0.288473
vt 0.258651 0.174002
vt 0.229598 0.126144
vt 0.228810 0.075346
vt 0.277072 0.022828
vt 0.317658 0.032867
vt 0.358891 0.084555
vt 0.368158 0.148924
vt 0.442567 0.266025
vt 0.463507 0.312694
vt 0.484123 0.338538
vt 0.503932 0.312320
vt 0.493026 0.260847
vt 0.502236 0.202988
vt 0.515227 0.171626
vt 0.514581 0.129976
vt 0.521968 0.083564
vt 0.547219 0.061983
vt 0.702020 0.050135
vt 0.752727 0.085558
vt 0.763788 0.122461
vt 0.656715 0.170316
vt 0.643724 0.201678
vt 0.676489 0.310990
vt 0.677292 0.362784
vt 0.641508 0.493291
vt 0.719263 0.479375
vt 0.769602 0.497312
vt 0.787809 0.558054
vt 0.739952 0.757937
vt 0.645950 0.779635
vt 1.163597 0.268478
vt 1.162412 0.234384
vt 0.815432 0.052391
vt 0.789004 0.034176
vt 1.083782 0.200436
vt 1.109115 0.189203
vt 1.141425 0.227638
vt 1.121808 0.246638
vt 1.513256 0.863695
vt 1.546172 0.869782
vt 1.519786 0.906552
vt 1.495008 0.889594
vt 1.468171 0.726978
vt 1.502552 0.727044
vt 1.528645 0.802962
vt 1.493453 0.809116
vt 1.390276 0.042028
vt 1.437490 0.013916
vt 1.422325 0.235404
vt 1.395616 0.294957
vt 1.488676 0.566855
vt 1.492191 0.642678
vt 1.489250 0.688365
vt 1.409890 0.930669
vt 1.326590 0.933109
vt 1.276815 0.907636
vt 1.242053 0.869515
vt 1.193498 0.803942
vt 1.088401 0.788035
vt 0.941994 0.589781
vt 0.898458 0.185750
vt 1.513137 0.692281
vt 1.520052 0.643438
vt 1.365867 0.024161
vt 1.432919 -0.011561
vt 1.070117 0.808827
vt 1.170765 0.831440
vt 1.316450 0.954865
vt 1.256503 0.923137
vt 1.219148 0.882046
vt 1.451910 0.242221
vt 0.863294 0.197932
vt 0.917443 0.581804
vt 1.418033 0.954331
vt 1.516787 0.564914
vt 1.428908 0.299190
vn -0.0866 -0.0000 0.9962
vn 0.9028 0.0000 0.4300
vn -0.7337 0.0000 0.6795
vn -0.8878 0.0000 0.4603
vn 0.9768 0.0000 0.2140
vn -1.0000 0.0000 0.0000
vn -0.9487 0.0000 0.3162
vn 0.9757 0.0000 -0.2190
vn 0.4903 0.0000 -0.8716
vn 0.9487 0.0000 0.3162
vn -0.8083 0.0000 0.5887
vn -0.9104 0.0000 -0.4138
vn 1.0000 0.0000 0.0000
vn -0.9910 0.0000 0.1340
vn 0.0000 1.0000 0.0000
vn 0.8575 0.0000 0.5145
vn 0.6795 -0.0000 0.7337
vn -0.9887 0.0000 -0.1497
vn -0.7071 0.0000 -0.7071
vn -0.9865 0.0000 0.1636
vn 0.0000 -1.0000 -0.0000
vn -0.3251 0.0000 -0.9457
vn 0.9768 -0.0000 0.2139
vn -0.8575 0.0000 0.5145
vn 0.9811 0.0000 -0.1937
vn 0.2747 0.0000 -0.9615
vn 0.8575 0.0000 -0.5145
vn 0.9778 0.0000 0.2095
vn 0.9951 0.0000 0.0986
vn -0.9988 0.0000 -0.0491
vn 0.9487 0.0000 -0.3162
vn -0.2140 0.0000 0.9768
vn 0.2425 0.0000 -0.9701
vn -0.9430 0.0000 -0.3328
vn -0.2169 0.0000 -0.9762
vn 0.4296 0.0000 0.9030
vn -0.9701 0.0000 -0.2425
vn 0.3162 -0.0000 0.9487
vn -0.9971 0.0000 -0.0767
usemtl Material.001
s off
f 19/1/1 20/2/1 18/3/1 17/4/1
f 89/5/2 90/6/2 88/7/2 87/8/2
f 17/4/3 18/3/3 16/9/3 15/10/3
f 68/11/4 67/12/4 69/13/4 70/14/4
f 39/15/5 40/16/5 38/17/5 37/18/5
f 79/19/6 80/20/6 78/21/6 77/22/6
f 11/23/7 12/24/7 10/25/7 9/26/7
f 33/27/8 34/28/8 32/29/8 31/30/8
f 25/31/9 26/32/9 24/33/9 23/34/9
f 1/35/10 3/36/10 90/6/10 89/5/10
f 13/37/6 14/38/6 12/24/6 11/23/6
f 81/39/11 82/40/11 80/20/11 79/19/11
f 77/22/12 78/21/12 76/41/12 75/42/12
f 31/30/13 32/29/13 30/43/13 29/44/13
f 15/10/14 16/9/14 14/38/14 13/37/14
f 46/45/15 48/46/15 50/47/15 52/48/15 54/49/15 56/50/15 58/51/15 60/52/15 62/53/15 64/54/15 66/55/15 68/56/15 70/57/15 72/58/15 74/59/15 76/60/15 78/61/15 80/62/15 82/63/15 84/64/15 86/65/15 88/66/15 90/67/15 3/68/15 4/69/15 6/70/15 8/71/15 10/72/15 12/73/15 14/74/15 16/75/15 18/76/15 20/77/15 22/78/15 24/79/15 26/80/15 28/81/15 30/82/15 32/83/15 34/84/15 36/85/15 38/86/15 40/87/15 42/88/15 44/89/15
f 2/90/16 4/91/16 3/36/16 1/35/16
f 21/92/17 22/93/17 20/2/17 19/1/17
f 7/94/18 8/95/18 6/96/18 5/97/18
f 55/98/19 56/99/19 54/100/19 53/101/19
f 59/102/20 60/103/20 58/104/20 57/105/20
f 1/35/21 89/5/21 87/8/21 85/106/21 83/107/21 81/39/21 79/19/21 77/22/21 75/42/21 73/108/21 71/109/21 69/13/21 67/12/21 65/110/21 63/111/21 61/112/21 59/102/21 57/105/21 55/98/21 53/101/21 51/113/21 49/114/21 47/115/21 45/116/21 43/117/21 41/118/21 39/15/21 37/18/21 35/119/21 33/27/21 31/30/21 29/44/21 27/120/21 25/31/21 23/34/21 21/92/21 19/1/21 17/4/21 15/10/21 13/37/21 11/23/21 9/26/21 7/94/21 5/97/21 2/90/21
f 61/112/22 62/121/22 60/103/22 59/102/22
f 63/111/12 64/122/12 62/121/12 61/112/12
f 23/34/23 24/33/23 22/93/23 21/92/23
f 85/106/16 86/123/16 84/124/16 83/107/16
f 9/26/14 10/25/14 8/95/14 7/94/14
f 5/97/24 6/96/24 4/91/24 2/90/24
f 41/118/25 42/125/25 40/16/25 39/15/25
f 43/117/26 44/126/26 42/125/26 41/118/26
f 49/114/27 50/127/27 48/128/27 47/115/27
f 45/116/28 46/129/28 44/126/28 43/117/28
f 87/8/29 88/7/29 86/123/29 85/106/29
f 75/42/30 76/41/30 74/130/30 73/108/30
f 27/120/31 28/131/31 26/32/31 25/31/31
f 57/105/6 58/104/6 56/99/6 55/98/6
f 35/119/32 36/132/32 34/28/32 33/27/32
f 51/113/33 52/133/33 50/127/33 49/114/33
f 65/110/34 66/134/34 64/122/34 63/111/34
f 53/101/35 54/100/35 52/133/35 51/113/35
f 47/115/13 48/128/13 46/129/13 45/116/13
f 37/18/36 38/17/36 36/132/36 35/119/36
f 73/108/12 74/130/12 72/135/12 71/109/12
f 67/12/37 68/11/37 66/134/37 65/110/37
f 83/107/38 84/124/38 82/40/38 81/39/38
f 29/44/23 30/43/23 28/131/23 27/120/23
f 71/109/39 72/135/39 70/14/39 69/13/39
