# Blender v2.79 (sub 0) OBJ File: 'collectable_control_panel.blend'
# www.blender.org
mtllib collectable_control_panel.mtl
o MeshBody1
v -0.260000 0.045000 -0.025000
v 0.253092 0.045000 -0.025000
v -0.260000 0.045000 0.025000
v 0.253092 0.045000 0.025000
v -0.310000 0.055000 -0.025000
v -0.310000 0.055000 0.025000
v -0.540000 0.435000 -0.025000
v -0.540000 0.435000 0.025000
v -0.540000 0.465000 -0.025000
v -0.540000 0.465000 0.025000
v -0.490000 0.505000 -0.025000
v -0.490000 0.505000 0.025000
v 0.500000 0.505000 -0.025000
v 0.500000 0.505000 0.025000
v 0.540000 0.465000 -0.025000
v 0.540000 0.465000 0.025000
v 0.540000 0.435000 -0.025000
v 0.540000 0.435000 0.025000
v 0.310000 0.065000 -0.025000
v 0.310000 0.065000 0.025000
vt 0.911919 0.871786
vt 0.967478 0.873984
vt 0.930501 0.934537
vt 0.888215 0.908249
vt 0.549376 0.697566
vt 0.540308 0.656874
vt 0.601700 0.655311
vt 0.591457 0.693146
vt 0.127399 0.866508
vt 0.093283 0.838838
vt 0.901810 0.853116
vt 0.959889 0.838457
vt 0.097181 1.150089
vt 0.053288 1.169475
vt 0.053003 0.880621
vt 0.095857 0.897220
vt 0.967007 0.396474
vt 0.770065 0.648338
vt 0.727204 0.654988
vt 0.287306 0.655247
vt 0.238503 0.642026
vt 0.041071 0.397018
vt 0.041051 0.377143
vt 0.075319 0.350624
vt 0.924094 0.350124
vt 0.966987 0.376599
vt 0.110448 1.165288
vt 0.076734 1.193053
vt 0.151802 1.171201
vt 0.145144 1.212937
vn -0.6247 0.7809 0.0000
vn -0.1961 -0.9806 -0.0000
vn 0.0000 -1.0000 -0.0000
vn -1.0000 0.0000 0.0000
vn 0.8493 -0.5279 0.0000
vn 0.0000 -0.0000 1.0000
vn 1.0000 0.0000 0.0000
vn 0.3316 -0.9434 -0.0000
vn -0.0000 0.0000 -1.0000
vn 0.0000 1.0000 0.0000
vn 0.7071 0.7071 0.0000
vn -0.8555 -0.5178 0.0000
usemtl Material.001
s off
f 9/1/1 10/2/1 12/3/1 11/4/1
f 1/5/2 3/6/2 6/7/2 5/8/2
f 2/9/3 4/10/3 3/6/3 1/5/3
f 7/11/4 8/12/4 10/2/4 9/1/4
f 17/13/5 18/14/5 20/15/5 19/16/5
f 8/17/6 6/18/6 3/19/6 4/20/6 20/21/6 18/22/6 16/23/6 14/24/6 12/25/6 10/26/6
f 15/27/7 16/28/7 18/14/7 17/13/7
f 19/16/8 20/15/8 4/10/8 2/9/8
f 19/16/9 2/9/9 1/5/9 5/8/9 7/11/9 9/1/9 11/4/9 13/29/9 15/27/9 17/13/9
f 11/4/10 12/3/10 14/30/10 13/29/10
f 13/29/11 14/30/11 16/28/11 15/27/11
f 5/8/12 6/7/12 8/12/12 7/11/12
