# Blender v2.79 (sub 0) OBJ File: 'coll_nut.blend'
# www.blender.org
mtllib coll_nut.mtl
o MeshBody1
v -0.205024 0.025632 -0.020607
v 0.194976 0.025632 -0.020607
v -0.205024 0.025632 0.029393
v 0.194976 0.025632 0.029393
v -0.405024 0.294322 -0.020607
v -0.405024 0.294322 0.029393
v -0.405024 0.504265 -0.020607
v -0.405024 0.504265 0.029393
v -0.190655 0.724368 -0.020607
v -0.190655 0.724368 0.029393
v 0.201239 0.724368 -0.020607
v 0.201239 0.724368 0.029393
v 0.403761 0.476273 -0.020607
v 0.403761 0.476273 0.029393
v 0.403761 0.260331 -0.020607
v 0.403761 0.260331 0.029393
vt 0.844936 -0.301557
vt 0.810306 -0.346702
vt 1.187256 -0.390810
vt 1.167673 -0.341952
vt 1.504280 0.124023
vt 1.567030 0.141688
vt 1.395778 0.316274
vt 1.361595 0.271820
vt 1.031933 0.326910
vt 1.015191 0.376552
vt 0.637238 0.158182
vt 0.699897 0.138678
vt 1.485046 -0.144628
vt 1.544868 -0.165084
vt 0.714745 -0.149339
vt 0.651812 -0.167757
vt 0.056134 0.610678
vt 0.056632 0.432198
vt 0.277302 0.204142
vt 0.717372 0.204874
vt 0.946516 0.404781
vt 0.946004 0.588361
vt 0.722607 0.798904
vt 0.291456 0.798187
vn -0.7164 0.6977 0.0000
vn 1.0000 0.0000 0.0000
vn 0.0000 -1.0000 -0.0000
vn 0.7747 0.6324 0.0000
vn -1.0000 0.0000 0.0000
vn 0.0000 0.0000 -1.0000
vn -0.0000 -0.0000 1.0000
vn 0.0000 1.0000 0.0000
vn -0.8022 -0.5971 0.0000
vn 0.7472 -0.6647 0.0000
usemtl Material.001
s off
f 7/1/1 8/2/1 10/3/1 9/4/1
f 13/5/2 14/6/2 16/7/2 15/8/2
f 2/9/3 4/10/3 3/11/3 1/12/3
f 11/13/4 12/14/4 14/6/4 13/5/4
f 5/15/5 6/16/5 8/2/5 7/1/5
f 7/1/6 9/4/6 11/13/6 13/5/6 15/8/6 2/9/6 1/12/6 5/15/6
f 8/17/7 6/18/7 3/19/7 4/20/7 16/21/7 14/22/7 12/23/7 10/24/7
f 9/4/8 10/3/8 12/14/8 11/13/8
f 1/12/9 3/11/9 6/16/9 5/15/9
f 15/8/10 16/7/10 4/10/10 2/9/10
