# Blender v2.79 (sub 0) OBJ File: 'ruinable_medium.blend'
# www.blender.org
mtllib ruinable_medium.mtl
o MeshBody1
v -0.415611 0.113482 0.100000
v -0.410190 0.080797 0.100000
v -0.415611 0.113482 0.150000
v -0.410190 0.080797 0.150000
v -0.395337 0.144896 0.100000
v -0.395337 0.144896 0.150000
v -0.395000 0.150000 0.100000
v -0.395000 0.150000 0.150000
v -0.425380 0.177335 0.100000
v -0.425380 0.177335 0.150000
v -0.460000 0.220000 0.100000
v -0.460000 0.220000 0.150000
v -0.466948 0.250518 0.100000
v -0.466948 0.250518 0.150000
v -0.465000 0.280000 0.100000
v -0.465000 0.280000 0.150000
v -0.439868 0.327206 0.100000
v -0.439868 0.327206 0.150000
v -0.438650 0.333849 0.100000
v -0.438650 0.333849 0.150000
v -0.447593 0.349060 0.100000
v -0.447593 0.349060 0.150000
v -0.467699 0.410000 0.100000
v -0.467699 0.410000 0.150000
v -0.467699 0.455531 0.100000
v -0.467699 0.455531 0.150000
v -0.458850 0.507261 0.100000
v -0.458850 0.507261 0.150000
v -0.467699 0.534084 0.100000
v -0.467699 0.534084 0.150000
v -0.475561 0.592221 0.100000
v -0.475561 0.592221 0.150000
v -0.450000 0.700000 0.100000
v -0.450000 0.700000 0.150000
v -0.450000 0.750000 0.100000
v -0.450000 0.750000 0.150000
v -0.430000 0.835000 0.100000
v -0.430000 0.835000 0.150000
v -0.350000 0.910000 0.100000
v -0.350000 0.910000 0.150000
v 0.050000 0.940000 0.100000
v 0.050000 0.940000 0.150000
v 0.350000 0.885000 0.100000
v 0.350000 0.885000 0.150000
v 0.425000 0.860000 0.100000
v 0.425000 0.860000 0.150000
v 0.446856 0.829905 0.100000
v 0.446856 0.829905 0.150000
v 0.455000 0.795000 0.100000
v 0.455000 0.795000 0.150000
v 0.440000 0.740000 0.100000
v 0.440000 0.740000 0.150000
v 0.425000 0.700000 0.100000
v 0.425000 0.700000 0.150000
v 0.420000 0.620000 0.100000
v 0.420000 0.620000 0.150000
v 0.402500 0.565000 0.100000
v 0.402500 0.565000 0.150000
v 0.420000 0.490000 0.100000
v 0.420000 0.490000 0.150000
v 0.415000 0.450000 0.100000
v 0.415000 0.450000 0.150000
v 0.375000 0.390000 0.100000
v 0.375000 0.390000 0.150000
v 0.355000 0.310000 0.100000
v 0.355000 0.310000 0.150000
v 0.285000 0.230000 0.100000
v 0.285000 0.230000 0.150000
v 0.290000 0.150000 0.100000
v 0.290000 0.150000 0.150000
v 0.260000 0.070000 0.100000
v 0.260000 0.070000 0.150000
v 0.100000 0.030000 0.100000
v 0.100000 0.030000 0.150000
v -0.170000 0.010000 0.100000
v -0.170000 0.010000 0.150000
v -0.330000 0.020000 0.100000
v -0.330000 0.020000 0.150000
v -0.386350 0.041131 0.100000
v -0.386350 0.041131 0.150000
vt 0.863322 0.661786
vt 0.801124 0.679024
vt 0.551485 0.718918
vt 0.216679 0.705389
vt 0.148413 0.658131
vt 0.130095 0.603540
vt 0.129150 0.571255
vt 0.105754 0.502037
vt 0.111225 0.464383
vt 0.118112 0.446935
vt 0.109740 0.413663
vt 0.108880 0.384264
vt 0.124528 0.344622
vt 0.131714 0.334669
vt 0.129637 0.326575
vt 0.108060 0.296315
vt 0.106077 0.277288
vt 0.111518 0.257510
vt 0.139946 0.229628
vt 0.165014 0.211688
vt 0.164639 0.208354
vt 0.147320 0.188246
vt 0.151466 0.167083
vt 0.170928 0.141243
vt 0.217785 0.127079
vt 0.351422 0.119161
vt 0.577373 0.129571
vt 0.711608 0.153923
vt 0.737649 0.205322
vt 0.734431 0.257046
vt 0.794435 0.307679
vt 0.812659 0.359042
vt 0.847217 0.397199
vt 0.852151 0.422955
vt 0.838945 0.471638
vt 0.854608 0.506894
vt 0.860298 0.558476
vt 0.873588 0.584084
vt 0.887161 0.619378
vt 0.881016 0.642035
vt 0.000000 0.000000
vt 0.000000 0.000000
vt 0.000000 0.000000
vt 0.000000 0.000000
vt 0.000000 0.000000
vt 0.000000 0.000000
vt 0.000000 0.000000
vt 0.000000 0.000000
vt 0.000000 0.000000
vt 0.000000 0.000000
vt 0.000000 0.000000
vt 0.000000 0.000000
vt 0.000000 0.000000
vt 0.000000 0.000000
vt 0.000000 0.000000
vt 0.000000 0.000000
vt 0.000000 0.000000
vt 0.000000 0.000000
vt 0.000000 0.000000
vt 0.000000 0.000000
vt 0.000000 0.000000
vt 0.000000 0.000000
vt 0.000000 0.000000
vt 0.000000 0.000000
vt 0.000000 0.000000
vt 0.000000 0.000000
vt 0.000000 0.000000
vt 0.000000 0.000000
vt 0.000000 0.000000
vt 0.000000 0.000000
vt 0.000000 0.000000
vt 0.000000 0.000000
vt 0.000000 0.000000
vt 0.000000 0.000000
vt 0.000000 0.000000
vt 0.000000 0.000000
vt 0.000000 0.000000
vt 0.000000 0.000000
vt 0.000000 0.000000
vt 0.000000 0.000000
vt 0.000000 0.000000
vt 0.000000 0.000000
vt 0.000000 0.000000
vt 0.000000 0.000000
vt 0.000000 0.000000
vt 0.000000 0.000000
vt 0.000000 0.000000
vt 0.000000 0.000000
vt 0.000000 0.000000
vt 0.000000 0.000000
vt 0.000000 0.000000
vt 0.000000 0.000000
vt 0.000000 0.000000
vt 0.000000 0.000000
vt 0.000000 0.000000
vt 0.000000 0.000000
vt 0.000000 0.000000
vt 0.000000 0.000000
vt 0.000000 0.000000
vt 0.000000 0.000000
vt 0.000000 0.000000
vt 0.000000 0.000000
vt 0.000000 0.000000
vt 0.000000 0.000000
vt 0.000000 0.000000
vt 0.000000 0.000000
vt 0.000000 0.000000
vt 0.000000 0.000000
vt 0.000000 0.000000
vt 0.000000 0.000000
vt 0.000000 0.000000
vt 0.000000 0.000000
vt 0.000000 0.000000
vt 0.000000 0.000000
vt 0.000000 0.000000
vt 0.000000 0.000000
vt 0.000000 0.000000
vt 0.000000 0.000000
vt 0.000000 0.000000
vt 0.000000 0.000000
vn 0.0000 -0.0000 1.0000
vn -0.9836 0.1803 0.0000
vn 0.9701 -0.2425 0.0000
vn -0.9496 -0.3133 0.0000
vn 0.3162 0.9487 0.0000
vn -0.8620 -0.5068 0.0000
vn -0.6839 0.7295 0.0000
vn 0.9738 0.2272 0.0000
vn 0.0000 0.0000 -1.0000
vn -0.8402 0.5423 0.0000
vn 0.1803 0.9836 0.0000
vn 0.9981 -0.0624 0.0000
vn -0.9857 0.1686 0.0000
vn -0.9750 -0.2220 0.0000
vn 0.2425 -0.9701 -0.0000
vn 0.9529 -0.3032 0.0000
vn 0.8091 0.5876 0.0000
vn -0.9497 -0.3133 0.0000
vn -0.6689 -0.7434 -0.0000
vn -1.0000 0.0000 0.0000
vn 0.9648 -0.2631 0.0000
vn -0.9730 0.2308 0.0000
vn 0.9363 -0.3511 -0.0000
vn 0.7526 -0.6585 0.0000
vn -0.9865 -0.1636 -0.0000
vn -0.8571 -0.5151 -0.0000
vn 0.9923 -0.1240 0.0000
vn -0.9978 0.0659 0.0000
vn -0.9734 0.2290 0.0000
vn -0.3511 -0.9363 -0.0000
vn 0.8321 -0.5547 0.0000
vn 0.9981 0.0624 0.0000
vn -0.0624 -0.9981 -0.0000
vn -0.9910 -0.1340 0.0000
vn -0.8827 0.4699 0.0000
vn -0.7765 -0.6301 -0.0000
vn 0.0739 -0.9973 -0.0000
vn -0.0748 0.9972 0.0000
usemtl Material.001
s off
f 46/1/1 44/2/1 42/3/1 40/4/1 38/5/1 36/6/1 34/7/1 32/8/1 30/9/1 28/10/1 26/11/1 24/12/1 22/13/1 20/14/1 18/15/1 16/16/1 14/17/1 12/18/1 10/19/1 8/20/1 6/21/1 3/22/1 4/23/1 80/24/1 78/25/1 76/26/1 74/27/1 72/28/1 70/29/1 68/30/1 66/31/1 64/32/1 62/33/1 60/34/1 58/35/1 56/36/1 54/37/1 52/38/1 50/39/1 48/40/1
usemtl Material.001_NONE
f 17/41/2 18/42/2 20/43/2 19/44/2
f 63/45/3 64/46/3 66/47/3 65/48/3
f 21/49/4 22/50/4 24/51/4 23/52/4
f 43/53/5 44/54/5 46/55/5 45/56/5
f 19/44/6 20/43/6 22/50/6 21/49/6
f 37/57/7 38/58/7 40/59/7 39/60/7
f 47/61/8 48/62/8 50/63/8 49/64/8
f 79/65/9 2/66/9 1/67/9 5/68/9 7/69/9 9/70/9 11/71/9 13/72/9 15/73/9 17/41/9 19/44/9 21/49/9 23/52/9 25/74/9 27/75/9 29/76/9 31/77/9 33/78/9 35/79/9 37/57/9 39/60/9 41/80/9 43/53/9 45/56/9 47/61/9 49/64/9 51/81/9 53/82/9 55/83/9 57/84/9 59/85/9 61/86/9 63/45/9 65/48/9 67/87/9 69/88/9 71/89/9 73/90/9 75/91/9 77/92/9
f 1/67/10 3/93/10 6/94/10 5/68/10
f 41/80/11 42/95/11 44/54/11 43/53/11
f 53/82/12 54/96/12 56/97/12 55/83/12
f 25/74/13 26/98/13 28/99/13 27/75/13
f 11/71/14 12/100/14 14/101/14 13/72/14
f 71/89/15 72/102/15 74/103/15 73/90/15
f 55/83/16 56/97/16 58/104/16 57/84/16
f 45/56/17 46/55/17 48/62/17 47/61/17
f 27/75/18 28/99/18 30/105/18 29/76/18
f 7/69/19 8/106/19 10/107/19 9/70/19
f 33/78/20 34/108/20 36/109/20 35/79/20
f 49/64/21 50/63/21 52/110/21 51/81/21
f 32/111/22 34/108/22 33/78/22 31/77/22
f 57/84/8 58/104/8 60/112/8 59/85/8
f 69/88/23 70/113/23 72/102/23 71/89/23
f 65/48/24 66/47/24 68/114/24 67/87/24
f 2/66/25 4/115/25 3/93/25 1/67/25
f 79/65/26 80/116/26 4/115/26 2/66/26
f 23/52/20 24/51/20 26/98/20 25/74/20
f 59/85/27 60/112/27 62/117/27 61/86/27
f 13/72/28 14/101/28 16/118/28 15/73/28
f 35/79/29 36/109/29 38/58/29 37/57/29
f 77/92/30 78/119/30 80/116/30 79/65/30
f 61/86/31 62/117/31 64/46/31 63/45/31
f 67/87/32 68/114/32 70/113/32 69/88/32
f 51/81/23 52/110/23 54/96/23 53/82/23
f 75/91/33 76/120/33 78/119/33 77/92/33
f 29/76/34 30/105/34 32/111/34 31/77/34
f 5/68/28 6/94/28 8/106/28 7/69/28
f 15/73/35 16/118/35 18/42/35 17/41/35
f 9/70/36 10/107/36 12/100/36 11/71/36
f 73/90/37 74/103/37 76/120/37 75/91/37
f 39/60/38 40/59/38 42/95/38 41/80/38
