# Blender v2.79 (sub 0) OBJ File: ''
# www.blender.org
mtllib box_ble_v01.mtl
o MeshBody1
v 0.033325 0.000000 -0.280000
v 0.016056 0.000000 -0.263349
v 0.033325 0.050000 -0.280000
v 0.016056 0.050000 -0.263349
v 0.170000 0.000000 -0.280000
v 0.170000 0.050000 -0.280000
v 0.250000 0.000000 -0.160000
v 0.250000 0.050000 -0.160000
v 0.250000 -0.000000 0.230000
v 0.250000 0.050000 0.230000
v 0.200000 -0.000000 0.280000
v 0.200000 0.050000 0.280000
v 0.060000 -0.000000 0.280000
v 0.060000 0.050000 0.280000
v 0.045000 -0.000000 0.265000
v 0.045000 0.050000 0.265000
v 0.030000 -0.000000 0.280000
v 0.030000 0.050000 0.280000
v -0.050000 -0.000000 0.280000
v -0.050000 0.050000 0.280000
v -0.070000 -0.000000 0.260000
v -0.070000 0.050000 0.260000
v -0.090000 -0.000000 0.280000
v -0.090000 0.050000 0.280000
v -0.190000 -0.000000 0.280000
v -0.190000 0.050000 0.280000
v -0.260000 -0.000000 0.190000
v -0.260000 0.050000 0.190000
v -0.260000 0.000000 -0.220000
v -0.260000 0.050000 -0.220000
v -0.200000 0.000000 -0.280000
v -0.200000 0.050000 -0.280000
v -0.120000 0.000000 -0.280000
v -0.120000 0.050000 -0.280000
v -0.103944 0.000000 -0.263349
v -0.103944 0.050000 -0.263349
v -0.090000 0.000000 -0.280000
v -0.090000 0.050000 -0.280000
v 0.000000 0.000000 -0.280000
v 0.000000 0.050000 -0.280000
vt 0.235193 0.624306
vt 0.235308 0.524756
vt 0.251017 0.512189
vt 0.235336 0.500483
vt 0.235411 0.434930
vt 0.251118 0.424785
vt 0.235436 0.413079
vt 0.235503 0.354809
vt 0.292109 0.311146
vt 0.678574 0.311412
vt 0.763349 0.362456
vt 0.763265 0.435293
vt 0.744396 0.449848
vt 0.763231 0.464428
vt 0.763164 0.522698
vt 0.749013 0.533613
vt 0.763139 0.544549
vt 0.763022 0.646521
vt 0.715850 0.682907
vt 0.348237 0.682654
vt 0.000000 0.000000
vt 0.000000 0.000000
vt 0.000000 0.000000
vt 0.000000 0.000000
vt 0.000000 0.000000
vt 0.000000 0.000000
vt 0.000000 0.000000
vt 0.000000 0.000000
vt 0.000000 0.000000
vt 0.000000 0.000000
vt 0.000000 0.000000
vt 0.000000 0.000000
vt 0.000000 0.000000
vt 0.000000 0.000000
vt 0.000000 0.000000
vt 0.000000 0.000000
vt 0.000000 0.000000
vt 0.000000 0.000000
vt 0.000000 0.000000
vt 0.000000 0.000000
vt 0.000000 0.000000
vt 0.000000 0.000000
vt 0.000000 0.000000
vt 0.000000 0.000000
vt 0.000000 0.000000
vt 0.000000 0.000000
vt 0.000000 0.000000
vt 0.000000 0.000000
vt 0.000000 0.000000
vt 0.000000 0.000000
vt 0.000000 0.000000
vt 0.000000 0.000000
vt 0.000000 0.000000
vt 0.000000 0.000000
vt 0.000000 0.000000
vt 0.000000 0.000000
vt 0.000000 0.000000
vt 0.000000 0.000000
vt 0.000000 0.000000
vt 0.000000 0.000000
vn 0.0000 1.0000 0.0000
vn 0.7071 0.0000 0.7071
vn 0.0000 0.0000 -1.0000
vn 0.0000 0.0000 1.0000
vn -0.7071 0.0000 0.7071
vn 0.7199 0.0000 -0.6941
vn 1.0000 0.0000 0.0000
vn -0.7667 0.0000 -0.6420
vn 0.8321 0.0000 -0.5547
vn -0.7894 -0.0000 0.6139
vn -0.7071 0.0000 -0.7071
vn -0.0000 -1.0000 -0.0000
vn -1.0000 0.0000 0.0000
vn -0.6941 0.0000 -0.7199
usemtl Material.001
s off
f 6/1/1 3/2/1 4/3/1 40/4/1 38/5/1 36/6/1 34/7/1 32/8/1 30/9/1 28/10/1 26/11/1 24/12/1 22/13/1 20/14/1 18/15/1 16/16/1 14/17/1 12/18/1 10/19/1 8/20/1
usemtl Material.001_NONE
f 21/21/2 22/22/2 24/23/2 23/24/2
f 31/25/3 32/26/3 34/27/3 33/28/3
f 11/29/4 12/30/4 14/31/4 13/32/4
f 9/33/2 10/34/2 12/30/2 11/29/2
f 1/35/3 3/36/3 6/37/3 5/38/3
f 19/39/5 20/40/5 22/22/5 21/21/5
f 39/41/6 40/42/6 4/43/6 2/44/6
f 37/45/3 38/46/3 40/42/3 39/41/3
f 33/28/6 34/27/6 36/47/6 35/48/6
f 15/49/2 16/50/2 18/51/2 17/52/2
f 7/53/7 8/54/7 10/34/7 9/33/7
f 35/48/8 36/47/8 38/46/8 37/45/8
f 13/32/5 14/31/5 16/50/5 15/49/5
f 5/38/9 6/37/9 8/54/9 7/53/9
f 23/24/4 24/23/4 26/55/4 25/56/4
f 17/52/4 18/51/4 20/40/4 19/39/4
f 25/56/10 26/55/10 28/57/10 27/58/10
f 29/59/11 30/60/11 32/26/11 31/25/11
f 25/56/12 27/58/12 29/59/12 31/25/12 33/28/12 35/48/12 37/45/12 39/41/12 2/44/12 1/35/12 5/38/12 7/53/12 9/33/12 11/29/12 13/32/12 15/49/12 17/52/12 19/39/12 21/21/12 23/24/12
f 27/58/13 28/57/13 30/60/13 29/59/13
f 2/44/14 4/43/14 3/36/14 1/35/14
